# Blender v3.0.0 OBJ File: 'CenterPiece base.blend'
# www.blender.org
mtllib CenterPiece base.mtl
o Plane
v 0.000000 0.000000 0.000000
v 0.500000 0.688191 -0.000000
v 0.809017 -0.262866 -0.000000
v -0.000000 -0.850651 0.000000
v -0.809017 -0.262865 0.000000
v -0.500000 0.688191 0.000000
vt 0.000000 0.000000
vt 0.000000 0.000000
vt 0.000000 0.000000
vt 0.000000 0.000000
vt 0.000000 0.000000
vt 0.000000 0.000000
vn 0.0000 0.0000 1.0000
usemtl None
s off
f 6/1/1 1/2/1 2/3/1
f 3/4/1 2/3/1 1/2/1
f 3/4/1 1/2/1 4/5/1
f 4/5/1 1/2/1 5/6/1
f 5/6/1 1/2/1 6/1/1
